<?xml version="1.0" standalone="no"?>
<!DOCTYPE svg PUBLIC "-//W3C//DTD SVG 20010904//EN"
 "http://www.w3.org/TR/2001/REC-SVG-20010904/DTD/svg10.dtd">
<svg version="1.0" xmlns="http://www.w3.org/2000/svg"
 width="64.000000pt" height="64.000000pt" viewBox="0 0 64.000000 64.000000"
 preserveAspectRatio="xMidYMid meet">

<g transform="translate(0.000000,64.000000) scale(0.100000,-0.100000)"
fill="#ffffff" stroke="none">
<path d="M407 633 c-4 -3 -7 -16 -7 -28 0 -20 -6 -23 -75 -28 -132 -10 -226
-68 -283 -175 -37 -70 -55 -172 -29 -172 8 0 26 19 40 43 60 101 153 157 275
165 l72 5 0 -32 c0 -21 5 -31 15 -31 17 0 138 107 143 126 3 11 -124 134 -138
134 -4 0 -10 -3 -13 -7z m99 -115 c4 -5 -7 -24 -25 -41 -29 -30 -31 -30 -44
-13 -12 17 -24 18 -98 13 -104 -7 -159 -26 -227 -77 -50 -38 -52 -39 -38 -13
22 43 84 100 135 125 33 16 70 23 134 26 63 3 90 9 94 18 4 11 11 10 34 -7 16
-11 31 -25 35 -31z"/>
<path d="M587 368 c-60 -102 -153 -158 -274 -166 l-73 -5 0 32 c0 21 -5 31
-15 31 -17 0 -138 -107 -143 -126 -4 -14 122 -129 140 -129 7 0 14 12 16 26 3
25 6 26 77 32 134 10 231 72 285 180 36 74 52 167 27 167 -8 0 -26 -19 -40
-42z m-21 -117 c-8 -15 -38 -49 -67 -75 -60 -54 -123 -76 -220 -76 -50 0 -70
-4 -76 -15 -7 -12 -15 -10 -43 14 l-35 30 32 32 c31 32 33 32 46 15 12 -17 24
-18 98 -13 104 7 159 26 224 76 28 22 51 40 53 40 1 1 -4 -12 -12 -28z"/>
</g>
</svg>
