<?xml version="1.0" standalone="no"?>
<!DOCTYPE svg PUBLIC "-//W3C//DTD SVG 20010904//EN"
 "http://www.w3.org/TR/2001/REC-SVG-20010904/DTD/svg10.dtd">
<svg version="1.0" xmlns="http://www.w3.org/2000/svg"
 width="64.000000pt" height="64.000000pt" viewBox="0 0 64.000000 64.000000"
 preserveAspectRatio="xMidYMid meet">

<g transform="translate(0.000000,64.000000) scale(0.100000,-0.100000)"
fill="#ffffff" stroke="none">
<path d="M32 608 c-15 -15 -17 -288 -2 -288 6 0 10 40 10 100 l0 100 195 0
195 0 0 -85 0 -84 -97 -3 c-96 -3 -98 -4 -102 -28 -1 -14 -8 -29 -15 -33 -8
-6 -8 -10 2 -14 6 -2 12 -18 12 -34 l0 -29 -95 0 c-78 0 -95 3 -95 15 0 8 -4
15 -10 15 -18 0 -11 -39 9 -50 11 -5 58 -10 105 -10 80 0 85 -1 88 -22 3 -22
8 -23 101 -26 l97 -3 12 -44 c13 -48 32 -59 43 -24 7 20 8 20 41 -12 l34 -33
32 32 32 32 -33 34 c-32 33 -32 34 -12 41 27 8 28 35 1 35 -17 0 -19 8 -22 78
l-3 77 -47 3 -48 3 0 115 c0 64 -5 124 -10 135 -10 18 -23 19 -208 19 -141 0
-201 -3 -210 -12z m396 -40 l3 -28 -191 0 c-160 0 -192 2 -196 15 -4 8 -4 22
0 30 5 13 33 15 193 13 l188 -3 3 -27z m102 -302 l0 -64 -47 14 c-72 22 -76
20 -68 -26 l7 -40 -81 0 -81 0 0 90 0 90 135 0 135 0 0 -64z m-9 -83 c24 -5
26 -8 16 -24 -10 -16 -6 -24 21 -52 25 -26 29 -36 20 -45 -9 -9 -19 -5 -45 20
-28 27 -36 31 -52 21 -16 -10 -19 -8 -24 16 -3 16 -9 41 -13 56 -7 26 -5 28
21 21 15 -4 40 -10 56 -13z"/>
<path d="M60 570 c0 -5 5 -10 10 -10 6 0 10 5 10 10 0 6 -4 10 -10 10 -5 0
-10 -4 -10 -10z"/>
<path d="M110 570 c0 -5 5 -10 10 -10 6 0 10 5 10 10 0 6 -4 10 -10 10 -5 0
-10 -4 -10 -10z"/>
<path d="M160 570 c0 -5 5 -10 10 -10 6 0 10 5 10 10 0 6 -4 10 -10 10 -5 0
-10 -4 -10 -10z"/>
<path d="M230 570 c0 -6 37 -10 90 -10 53 0 90 4 90 10 0 6 -37 10 -90 10 -53
0 -90 -4 -90 -10z"/>
<path d="M123 478 c2 -7 10 -13 17 -13 7 0 15 6 18 13 2 7 -5 12 -18 12 -13 0
-20 -5 -17 -12z"/>
<path d="M185 481 c-3 -5 -1 -12 5 -16 12 -7 30 2 30 16 0 12 -27 12 -35 0z"/>
<path d="M252 478 c5 -15 28 -18 29 -3 0 6 -7 12 -17 13 -10 3 -15 -1 -12 -10z"/>
<path d="M315 481 c-3 -5 -1 -12 5 -16 12 -7 30 2 30 16 0 12 -27 12 -35 0z"/>
<path d="M380 471 c0 -12 5 -21 10 -21 6 0 10 6 10 14 0 8 -4 18 -10 21 -5 3
-10 -3 -10 -14z"/>
<path d="M80 459 c0 -11 5 -17 10 -14 6 3 10 13 10 21 0 8 -4 14 -10 14 -5 0
-10 -9 -10 -21z"/>
<path d="M80 400 c0 -11 5 -20 10 -20 6 0 10 9 10 20 0 11 -4 20 -10 20 -5 0
-10 -9 -10 -20z"/>
<path d="M380 400 c0 -11 5 -20 10 -20 6 0 10 9 10 20 0 11 -4 20 -10 20 -5 0
-10 -9 -10 -20z"/>
<path d="M80 335 c0 -8 5 -15 10 -15 6 0 10 7 10 15 0 8 -4 15 -10 15 -5 0
-10 -7 -10 -15z"/>
<path d="M20 280 c0 -5 5 -10 10 -10 6 0 10 5 10 10 0 6 -4 10 -10 10 -5 0
-10 -4 -10 -10z"/>
<path d="M80 280 c0 -5 9 -10 21 -10 11 0 17 5 14 10 -3 6 -13 10 -21 10 -8 0
-14 -4 -14 -10z"/>
<path d="M140 280 c0 -5 9 -10 20 -10 11 0 20 5 20 10 0 6 -9 10 -20 10 -11 0
-20 -4 -20 -10z"/>
</g>
</svg>
