<?xml version="1.0" standalone="no"?>
<!DOCTYPE svg PUBLIC "-//W3C//DTD SVG 20010904//EN"
 "http://www.w3.org/TR/2001/REC-SVG-20010904/DTD/svg10.dtd">
<svg version="1.0" xmlns="http://www.w3.org/2000/svg"
 width="64.000000pt" height="64.000000pt" viewBox="0 0 64.000000 64.000000"
 preserveAspectRatio="xMidYMid meet">

<g transform="translate(0.000000,64.000000) scale(0.100000,-0.100000)"
fill="#ffffff" stroke="none">
<path d="M90 594 c0 -39 -6 -53 -39 -93 -30 -36 -41 -60 -46 -97 -6 -44 -4
-51 19 -73 26 -24 26 -26 26 -178 l0 -153 40 0 c22 0 40 5 40 10 0 6 -13 10
-30 10 l-30 0 0 143 1 142 33 16 c28 13 37 13 52 2 23 -17 54 -17 80 2 19 12
24 12 40 0 24 -18 64 -18 88 0 16 12 21 12 40 0 26 -19 57 -19 80 -2 15 11 24
11 52 -2 l33 -16 1 -142 c0 -119 -2 -143 -15 -143 -12 0 -15 22 -17 118 l-3
117 -82 3 -83 3 0 -121 0 -120 -115 0 c-70 0 -115 -4 -115 -10 0 -6 82 -10
225 -10 l225 0 0 153 c0 152 0 154 26 178 23 22 25 29 19 73 -5 37 -16 61 -46
97 -33 40 -39 54 -39 93 l0 46 -230 0 -230 0 0 -46z m440 -4 l0 -30 -210 0
-210 0 0 30 0 30 210 0 210 0 0 -30z m-360 -55 c0 -2 -8 -20 -17 -40 -15 -32
-20 -35 -60 -35 -24 0 -43 2 -43 5 0 2 14 20 31 40 22 25 39 35 60 35 16 0 29
-2 29 -5z m88 -32 c-3 -38 -3 -38 -51 -41 l-48 -3 21 40 c17 34 25 41 51 41
29 0 30 -2 27 -37z m100 -5 l3 -38 -40 0 c-40 0 -41 1 -41 33 0 42 7 49 45 45
27 -3 30 -7 33 -40z m102 1 l21 -40 -48 3 c-48 3 -48 3 -51 41 -3 35 -2 37 27
37 26 0 34 -7 51 -41z m99 6 c17 -20 31 -38 31 -40 0 -3 -19 -5 -43 -5 -40 0
-45 3 -60 35 -22 46 -22 45 12 45 21 0 38 -10 60 -35z m-433 -107 c-4 -23 -12
-48 -18 -55 -14 -18 -53 -16 -72 3 -18 17 -18 20 -10 63 6 30 8 31 57 31 l50
0 -7 -42z m124 5 c0 -42 -23 -73 -56 -73 -31 0 -51 32 -46 74 4 36 5 36 53 36
l49 0 0 -37z m120 -6 c0 -49 -13 -67 -50 -67 -37 0 -50 18 -50 67 l0 43 50 0
50 0 0 -43z m122 7 c5 -42 -14 -74 -44 -74 -35 0 -58 29 -58 72 l0 38 49 0
c48 0 49 0 53 -36z m118 27 c0 -5 3 -22 6 -38 7 -35 -15 -63 -50 -63 -31 0
-44 17 -52 68 l-7 42 52 0 c28 0 51 -4 51 -9z m-90 -206 c0 -12 -14 -15 -65
-15 -51 0 -65 3 -65 15 0 12 14 15 65 15 51 0 65 -3 65 -15z m-2 -123 l3 -82
-66 0 -65 0 0 85 0 86 63 -3 62 -3 3 -83z"/>
<path d="M140 590 c0 -6 69 -10 186 -10 121 0 183 3 179 10 -8 14 -365 14
-365 0z"/>
<path d="M112 188 l3 -73 110 0 110 0 3 73 3 72 -116 0 -116 0 3 -72z m206 0
l-3 -53 -92 -3 -93 -3 0 56 0 55 96 0 95 0 -3 -52z"/>
</g>
</svg>
